<svg width="152" height="162" viewBox="0 0 152 162" fill="none" xmlns="http://www.w3.org/2000/svg">
<g clip-path="url(#clip0_312_771)">
<path d="M61.6206 145.041C61.6206 146.023 62.2842 146.812 63.0995 146.812H83.8419C84.6572 146.812 85.3208 146.023 85.3208 145.041V133.397C85.3208 132.415 84.6572 131.625 83.8419 131.625H63.0995C62.2842 131.625 61.6206 132.415 61.6206 133.397V145.041Z" fill="#FEB206"/>
<path d="M113.761 116.326L117.278 113.643L117.293 113.628C124.093 108.456 129.398 101.348 132.603 93.1146C134.872 87.4221 136.072 81.309 136.134 75.1224L136.371 61.1499V61.0538C136.373 54.9946 134.496 49.1052 131.035 44.3047C127.573 39.5041 122.721 36.0622 117.236 34.5161C114.926 24.6575 109.598 15.9059 102.098 9.65207C94.598 3.39824 85.356 0.000936747 75.8408 0L61.6207 0C50.3064 0 39.4556 4.80032 31.4552 13.3449C23.4548 21.8896 18.9602 33.4786 18.9602 45.5625V81C18.9547 87.4113 20.2188 93.7514 22.6695 99.604C25.1203 105.457 28.7023 110.69 33.1804 114.959V147.061C33.1804 154.452 38.4797 162 46.7416 162H100.205C108.642 162 113.761 154.234 113.761 147.061V116.326ZM42.6605 110.084C38.2684 106.822 34.6809 102.473 32.2046 97.408C29.7283 92.3433 28.4368 86.7137 28.4403 81V45.5625C28.4403 36.1639 31.9361 27.1502 38.1586 20.5044C44.3811 13.8586 52.8207 10.125 61.6207 10.125H75.8408C84.3597 10.127 92.5518 13.6275 98.7211 19.9017C104.89 26.176 108.565 34.7437 108.983 43.8311H109.021V68.3438C109.021 69.0151 109.271 69.6589 109.715 70.1336C110.16 70.6083 110.763 70.875 111.391 70.875C112.02 70.875 112.623 70.6083 113.067 70.1336C113.511 69.6589 113.761 69.0151 113.761 68.3438V44.0539C117.458 44.8181 120.79 46.9327 123.185 50.0347C125.581 53.1367 126.891 57.0326 126.891 61.0538L126.654 74.9756C126.609 79.868 125.659 84.7027 123.857 89.2013C121.333 95.7063 117.144 101.321 111.77 105.401L104.281 111.117V116.438H42.6605V110.084ZM42.6605 126.562H104.281V147.061C104.281 149.693 102.48 151.875 100.2 151.875H46.7369C44.5091 151.875 42.6557 149.749 42.6557 147.061V126.562H42.6605Z" fill="#FEB206"/>
</g>
<defs>
<clipPath id="clip0_312_771">
<rect width="151.682" height="162" fill="white"/>
</clipPath>
</defs>
</svg>
