<svg width="170" height="162" viewBox="0 0 170 162" fill="none" xmlns="http://www.w3.org/2000/svg">
<path d="M70.3242 6.84715C70.3242 6.84715 66.8976 6.46746 63.0593 9.23918C58.1984 12.7576 58.7031 14.4029 58.7031 14.4029C58.7031 14.4029 48.7953 15.6559 37.7054 23.8445C26.6156 32.0331 19.2312 47.1067 15.2734 54.5233C11.3156 61.9398 5.89685 72.1407 5.23279 74.9125C4.56873 77.6842 4.70154 79.57 5.63123 84.354C6.56091 89.1381 11.05 104.11 12.0992 108.388C13.1617 112.666 16.057 119.589 16.3226 121.348C16.5883 123.107 22.1531 123.702 28.5945 122.361C34.0133 121.234 39.1531 118.083 39.6843 116.324C40.2156 114.565 35.8593 102.364 33.7476 96.947C31.6359 91.5428 30.3211 85.6197 30.3211 85.6197C30.3211 85.6197 33.3625 80.8356 35.9922 76.1781C38.6218 71.5206 44.1734 63.0915 44.1734 63.0915C44.1734 63.0915 44.5718 68.1287 44.5718 73.6595C44.5718 79.1903 42.7257 86.2398 44.1734 89.8848C45.6211 93.5298 48.264 99.4403 48.264 99.4403C48.264 99.4403 45.3554 111.388 41.7961 122.082C38.2367 132.777 35.9922 138.94 35.9922 138.94C35.9922 138.94 37.5726 140.193 39.5515 141.079C41.5304 141.965 43.2437 142.459 43.2437 142.459L42.4468 146.484C42.4468 146.484 56.5781 155.419 85.7437 156.039C114.923 156.672 136.173 147.483 136.969 145.344C137.766 143.206 128.124 111.881 127.46 109.489L123.901 96.6559C123.901 96.6559 127.991 93.3906 128.39 85.5817C128.788 77.7728 127.726 63.1928 128.788 62.9397C129.851 62.6865 139.745 84.2022 139.745 84.2022C139.745 84.2022 138.948 94.6436 136.571 102.566C134.194 110.489 132.879 115.02 133.662 116.4C134.459 117.779 138.019 120.677 145.549 122.057C153.08 123.437 158.618 123.183 159.282 121.045C159.946 118.906 163.24 100.668 164.169 88.5812C165.099 76.4945 163.107 70.217 161.128 65.1798C159.149 60.1426 152.15 49.7012 149.773 43.4111C147.395 37.1209 143.039 26.2998 139.745 24.5406C136.452 22.7814 128.788 19.0098 122.586 17.2379C116.384 15.4787 110.832 13.8461 110.832 13.8461C110.832 13.8461 109.743 10.6061 104.125 8.22668C100.566 6.72059 98.3211 7.34074 98.3211 7.34074L85.1195 9.85934L70.3242 6.84715Z" fill="#C9C9C9"/>
<path d="M36.2977 30.2105C36.2977 30.2105 28.8602 36.1209 22.2461 48.3216C15.6321 60.5222 14.2641 67.2173 11.9133 69.9764C9.56253 72.7355 7.37113 76.0134 9.018 83.8856C10.6649 91.7578 18.3813 118.931 18.3813 118.931C18.3813 118.931 24.9953 117.88 28.4352 116.83C31.875 115.779 36.0055 114.337 35.7399 113.16C35.461 111.983 27.4789 85.4677 27.4789 85.4677C27.4789 85.4677 18.3946 81 19.218 80.0887C20.0414 79.1648 28.5813 80.2153 28.5813 80.2153C28.5813 80.2153 35.0493 70.1156 36.9883 66.825C38.9141 63.547 40.7071 61.4461 40.5742 59.8641C40.4414 58.2947 36.5766 48.0558 37.6789 47.0053C38.7813 45.9548 45.8071 55.4091 47.4539 57.2442C49.1008 59.0794 49.5258 60.0033 49.5258 60.0033C49.5258 60.0033 47.1883 83.8856 48.7024 85.86C50.2164 87.8344 52.4211 87.6952 52.4211 87.6952C52.4211 87.6952 62.1961 74.6972 67.575 66.0403C72.9539 57.3834 75.9821 51.3464 75.9821 51.3464C75.9821 51.3464 67.3094 39.323 62.7407 30.375C58.9289 22.8952 57.9063 17.2252 57.9063 17.2252C57.9063 17.2252 52.8063 18.9337 48.9547 21.1612C45.1032 23.3887 41.9289 25.6289 41.9289 25.6289C41.9289 25.6289 48.1313 40.5886 46.1922 42.2972C44.2797 43.9931 36.2977 30.2105 36.2977 30.2105ZM78.2797 49.3467C78.2797 49.3467 82.0914 43.0566 81.8125 42.1706C81.5336 41.2847 73.1399 32.0077 69.8063 25.4137C63.8563 13.6181 66.4594 9.80859 66.4594 9.80859C66.4594 9.80859 64.693 10.2516 62.8336 12.3778C60.9743 14.5041 60.2305 16.5417 60.2305 16.5417C60.2305 16.5417 61.5321 23.0091 65.1578 30.1092C70.55 40.6392 78.2797 49.3467 78.2797 49.3467Z" fill="#FEFEFE"/>
<path d="M97.8165 10.163C97.8165 10.163 99.9547 9.45429 100.977 9.3657C102 9.2771 104.59 10.6313 106.184 11.9349C107.791 13.2512 109.252 15.6559 109.252 15.6559C109.252 15.6559 105.891 26.6921 96.143 44.1198C86.3813 61.5474 77.0977 76.9754 72.5555 83.8351C68.0133 90.6948 64.029 95.5674 64.029 95.5674C64.029 95.5674 61.6649 96.466 60.8016 94.036C59.9516 91.5934 59.1016 86.9991 59.1016 86.9991L73.8836 65.8759L85.3454 45.1196L95.6649 23.9077L97.8165 10.163ZM111.908 17.1493C112.758 16.9721 117.088 18.0352 122.958 20.1994C128.828 22.3637 134.234 24.8949 134.42 26.1605C134.606 27.4262 129.014 42.9554 130.82 43.6768C132.627 44.3982 139.254 31.223 140.29 31.223C141.326 31.223 144.168 35.7413 145.589 39.5255C147.01 43.3098 147.581 46.7523 148.909 49.1823C150.238 51.6123 160.464 65.0659 160.65 81.1393C160.836 97.2127 156.865 115.716 156.387 116.792C155.909 117.88 150.981 118.513 146.718 117.513C142.455 116.526 136.584 114.982 137.049 113.185C137.527 111.375 139.798 104.515 140.927 100.453C142.07 96.3901 142.441 91.6946 142.92 90.9732C143.398 90.2518 152.774 86.7334 152.588 85.3791C152.402 84.0249 145.005 84.2907 143.69 82.6707C142.362 81.0507 131.949 60.016 131.843 58.5732C131.75 57.1304 136.77 49.9037 135.256 48.9165C133.742 47.9293 121.895 61.9144 121.709 62.813C121.523 63.7116 123.795 68.4957 123.888 75.811C123.981 83.1263 125.216 88.0876 119.903 90.8846C114.604 93.6816 104.842 94.6815 98.2149 93.1374C91.5875 91.5933 89.6883 88.9862 89.6883 88.9862C89.6883 88.9862 85.1461 91.3276 78.9836 93.0488C72.8211 94.7701 68.1461 95.1371 68.1461 95.1371C68.1461 95.1371 83.9508 73.5582 96.1563 50.2454C108.614 26.4896 111.908 17.1493 111.908 17.1493ZM55.6086 114.375C53.2844 114.742 52.7399 121.361 51.518 126.854C50.3891 131.941 47.2415 142.965 47.2415 142.965C47.2415 142.965 50.9071 144.598 58.6899 146.344L66.4727 148.091L74.0297 118.526C74.0297 118.526 68.7836 117.324 63.843 116.02C60.0711 115.033 57.6805 114.046 55.6086 114.375ZM86.0891 122.297C85.0133 122.234 81.8258 129.511 80.1258 136.637C78.4258 143.762 77.2836 149.799 77.2836 149.799C77.2836 149.799 81.1618 150.609 84.9469 150.787C88.7321 150.964 92.6633 150.28 92.6633 150.28C92.6633 150.28 92.225 141.029 91.4149 135.979C90.5649 130.6 87.7891 122.386 86.0891 122.297ZM100.287 117.513C100.287 117.513 105.015 117.248 111.363 115.982C117.698 114.716 120.448 112.742 122.055 113.906C123.662 115.083 125.747 124.272 127.354 130.41C128.961 136.536 130.86 142.674 129.904 143.573C128.961 144.471 118.363 146.724 115.613 147.534C112.864 148.344 105.493 137.257 105.4 136.536C105.294 135.814 100.287 117.513 100.287 117.513Z" fill="#FEFEFE"/>
<path d="M49.725 105.895C49.725 106.186 45.807 119.842 44.5984 124.221C43.3898 128.6 39.5648 141.079 39.5648 141.079C39.5648 141.079 40.8929 141.611 41.5836 141.826C42.2742 142.041 43.2703 142.459 43.2703 142.459C43.2703 142.459 48.1445 124.284 49.207 120.336C50.2695 116.387 51.6906 110.843 52.3015 109.122C52.9125 107.401 53.3507 106.034 53.3507 106.034L49.725 105.895ZM51.3054 97.7063C51.3054 97.7063 51.6109 95.3395 52.0625 94.4663C52.514 93.593 68.5711 71.685 74.9726 60.4716C81.932 48.2836 85 41.1581 85 41.1581C85 41.1581 77.9343 33.3619 74.0562 27.2109C70.1781 21.06 68.6375 14.8205 68.9429 12.188C69.2484 9.55548 71.5062 7.02423 71.5062 7.02423C71.5062 7.02423 75.7031 5.5561 85.3187 5.26501C95.1468 4.97392 100.366 7.50517 100.366 7.50517C100.366 7.50517 103.328 12.555 98.4273 23.7938C91.7734 39.0066 86.1422 49.6378 79.0898 61.4334C72.0375 73.2291 55.8211 98.9972 55.8211 98.9972L51.3054 97.7063ZM18.2351 119.146C18.6468 120.614 21.4359 121.437 27.9836 119.678C34.5312 117.918 36.789 115.286 36.3773 114.02C35.9656 112.755 33.814 113.235 26.8546 115.286C19.9086 117.336 17.8367 117.703 18.2351 119.146ZM136.465 114.311C136.465 116.096 140.051 118.792 145.775 119.969C151.499 121.146 156.108 120.07 156.413 118.311C156.719 116.551 152.323 116.26 147.103 115.185C141.897 114.109 136.465 112.362 136.465 114.311Z" fill="#9A9A9A"/>
<path d="M44.7711 95.2257C42.9649 95.8838 43.8282 98.6808 43.6953 101.111C43.5625 103.541 43.6953 105.085 44.6383 106.237C45.5813 107.388 58.3446 113.273 85.8766 113.02C113.409 112.767 126.504 107.743 127.234 106.895C128.257 105.718 128.244 102.756 128.27 100.263C128.323 96.8963 127.845 93.9474 125.999 94.5043C124.777 94.8713 113.688 98.9466 101.854 100.098C90.0336 101.25 73.3258 100.681 65.0516 99.5921C50.5485 97.6557 46.5242 94.5802 44.7711 95.2257Z" fill="#434343"/>
<path d="M90.6312 100.668C90.6312 100.668 89.0508 98.6427 86.3812 98.6933C84.15 98.7313 82.4101 100.744 82.4101 100.744C82.4101 100.744 71.1875 111.4 66.4461 122.323C62.8601 130.587 59.6992 139.915 56.9234 145.433C54.1609 150.951 51.332 154.558 52.3945 156.444C53.4437 158.33 65.4367 160.456 67.5484 159.076C69.6601 157.697 72.9406 142.547 75.2515 134.802C78.1601 125.069 81.3344 119.462 83.5523 116.425C84.0305 115.767 85 116.501 86.5008 116.88C87.0055 117.007 88.6789 116.007 88.9179 116.361C90.5515 118.766 92.8359 122.778 95.3328 129.195C100.459 142.408 101.787 158.317 102.837 159.064C103.886 159.823 107.83 160.101 111.509 159.557C114.909 159.064 118.907 157.925 119.558 156.672C120.209 155.419 113.767 138.978 106.781 125.17C99.8086 111.375 90.6312 100.668 90.6312 100.668Z" fill="#434343"/>
<path d="M78.7445 100.567L82.5031 100.63C82.5031 100.63 77.2836 106.401 77.6023 108.008C77.9211 109.616 84.4422 115.273 86.5937 115.02C88.7453 114.767 94.6687 108.856 94.5359 107.679C94.4031 106.502 90.6578 100.655 90.6578 100.655L94.4164 100.554C94.4164 100.554 98.6929 105.819 98.4937 108.3C98.2945 110.78 90.3656 118.121 86.5937 118.247C82.8086 118.374 74.3218 111.729 74.0828 107.996C73.8968 104.908 78.9304 100.377 78.7445 100.567Z" fill="#606568"/>
</svg>
