<svg width="24" height="24" viewBox="0 0 24 24" fill="none" xmlns="http://www.w3.org/2000/svg">
<path d="M12.0002 1.92859C14.2167 1.92859 16.3423 2.80907 17.9096 4.37634C19.4769 5.94361 20.3574 8.06928 20.3574 10.2857C20.3574 13.8172 17.8759 17.6657 12.9774 21.8726C12.705 22.1066 12.3577 22.2351 11.9986 22.2348C11.6395 22.2345 11.2925 22.1053 11.0205 21.8709L10.6965 21.5897C6.01478 17.4926 3.64307 13.7383 3.64307 10.2857C3.64307 8.06928 4.52355 5.94361 6.09082 4.37634C7.65808 2.80907 9.78376 1.92859 12.0002 1.92859ZM12.0002 7.07145C11.1477 7.07145 10.3302 7.41009 9.72737 8.01289C9.12457 8.61568 8.78592 9.43325 8.78592 10.2857C8.78592 11.1382 9.12457 11.9558 9.72737 12.5586C10.3302 13.1614 11.1477 13.5 12.0002 13.5C12.8527 13.5 13.6703 13.1614 14.2731 12.5586C14.8758 11.9558 15.2145 11.1382 15.2145 10.2857C15.2145 9.43325 14.8758 8.61568 14.2731 8.01289C13.6703 7.41009 12.8527 7.07145 12.0002 7.07145Z" fill="#FAA846"/>
</svg>
