<svg width="177" height="178" viewBox="0 0 177 178" fill="none" xmlns="http://www.w3.org/2000/svg">
<g clip-path="url(#clip0_312_560)">
<path d="M140.568 7.66753L85.55 52.9092L76.6263 45.1959L94.9163 34.59C95.8934 34.0225 96.7281 33.237 97.3559 32.294C97.9837 31.351 98.388 30.2757 98.5376 29.1509C98.6872 28.0261 98.5782 26.8818 98.2188 25.806C97.8595 24.7303 97.2595 23.7518 96.465 22.9459L74.7088 1.0667C73.3298 -0.320052 71.4595 -1.09912 69.5094 -1.09912C67.5592 -1.09912 65.689 -0.320052 64.31 1.0667C62.9311 2.45345 62.1564 4.33429 62.1564 6.29545C62.1564 8.25661 62.9311 10.1374 64.31 11.5242L79.2813 26.58L39.4563 49.6459C37.7846 50.6195 36.5647 52.2196 36.0638 54.0959L28.9838 79.9801C28.4675 81.9084 28.6888 83.9109 29.7213 85.6909L42.5538 108.089C44.6188 111.649 49.1175 112.836 52.6575 110.833C56.1975 108.757 57.3775 104.233 55.3863 100.673L44.1025 80.9442L46.7575 71.3767L70.0625 84.8009L73.3075 144.134C73.5288 148.288 76.9213 151.551 81.0513 151.551C85.1813 151.551 88.5738 148.288 88.795 144.134L92.1138 77.3842L150.155 18.3475C151.426 17.0353 152.153 15.2856 152.187 13.454C152.222 11.6224 151.562 9.84628 150.341 8.4865C149.12 7.12671 147.431 6.28528 145.615 6.13316C143.8 5.98105 141.995 6.52966 140.568 7.66753Z" fill="#FEB206"/>
<path d="M36.875 51.9167C45.0212 51.9167 51.625 45.2756 51.625 37.0833C51.625 28.8911 45.0212 22.25 36.875 22.25C28.7288 22.25 22.125 28.8911 22.125 37.0833C22.125 45.2756 28.7288 51.9167 36.875 51.9167Z" fill="#FEB206"/>
</g>
<defs>
<clipPath id="clip0_312_560">
<rect width="177" height="178" fill="white"/>
</clipPath>
</defs>
</svg>
