<svg width="75" height="69" viewBox="0 0 75 69" fill="none" xmlns="http://www.w3.org/2000/svg">
<path d="M63.4656 50.9105C69.3625 45.0225 68.7688 37.4612 68.75 37.375V14.375C68.75 13.6125 68.4208 12.8812 67.8347 12.3421C67.2487 11.8029 66.4538 11.5 65.625 11.5H46.875C43.4281 11.5 40.625 14.0789 40.625 17.25V37.375C40.625 38.1375 40.9543 38.8688 41.5403 39.4079C42.1264 39.9471 42.9212 40.25 43.75 40.25H53.3688C53.3027 41.6714 52.8411 43.0533 52.0281 44.2635C50.4406 46.5664 47.45 48.139 43.1344 48.9325L40.625 49.3925V57.5H43.75C52.4469 57.5 59.0813 55.2834 63.4656 50.9105ZM29.0688 50.9105C34.9688 45.0225 34.3719 37.4612 34.3531 37.375V14.375C34.3531 13.6125 34.0239 12.8812 33.4379 12.3421C32.8518 11.8029 32.057 11.5 31.2281 11.5H12.4781C9.03127 11.5 6.22815 14.0789 6.22815 17.25V37.375C6.22815 38.1375 6.55739 38.8688 7.14344 39.4079C7.72949 39.9471 8.52435 40.25 9.35315 40.25H18.9719C18.9059 41.6714 18.4443 43.0533 17.6313 44.2635C16.0438 46.5664 13.0531 48.139 8.73752 48.9325L6.22815 49.3925V57.5H9.35315C18.05 57.5 24.6844 55.2834 29.0688 50.9105Z" fill="#FEB206"/>
</svg>
