<svg width="110" height="110" viewBox="0 0 110 110" fill="none" xmlns="http://www.w3.org/2000/svg">
<path d="M55.0002 0.833313C84.9165 0.833313 109.167 25.0837 109.167 55C109.167 84.9162 84.9165 109.167 55.0002 109.167C45.7808 109.18 36.7118 106.83 28.659 102.342L27.0069 101.377L10.5835 106.209C9.68981 106.473 8.74362 106.503 7.83467 106.298C6.92572 106.094 6.08414 105.66 5.3897 105.039C4.69527 104.418 4.17099 103.629 3.86657 102.749C3.56215 101.868 3.48768 100.925 3.65021 100.007L3.79104 99.4166L8.62271 82.9933C3.51457 74.5504 0.82042 64.8679 0.833544 55C0.833544 25.0837 25.084 0.833313 55.0002 0.833313ZM55.0002 11.6666C47.2415 11.6652 39.6248 13.747 32.9453 17.6944C26.2659 21.6418 20.7688 27.3102 17.0281 34.1076C13.2874 40.9049 11.4403 48.582 11.6797 56.337C11.919 64.0919 14.2361 71.6404 18.389 78.1941C19.4615 79.8841 19.9219 81.9641 19.559 84.0279L19.3477 84.9108L16.959 93.0412L25.0894 90.6525C27.4348 89.9591 29.8723 90.3816 31.806 91.6112C37.4845 95.2067 43.9215 97.4321 50.6081 98.1114C57.2947 98.7907 64.0477 97.9053 70.3332 95.5252C76.6187 93.1451 82.2644 89.3356 86.8241 84.3978C91.3837 79.4599 94.7322 73.5292 96.605 67.0743C98.4777 60.6194 98.8233 53.8174 97.6145 47.206C96.4056 40.5945 93.6754 34.3549 89.6398 28.9804C85.6041 23.6058 80.3736 19.2437 74.3616 16.2388C68.3497 13.2339 61.7213 11.6686 55.0002 11.6666ZM39.3027 28.9133C39.9024 28.6536 40.5594 28.5545 41.209 28.6257C41.8586 28.697 42.4785 28.9361 43.0077 29.3196C45.7377 31.3129 47.9044 33.9887 49.7677 36.5996L51.539 39.1671L52.3677 40.3858C52.8459 41.085 53.0806 41.9221 53.0355 42.768C52.9905 43.6139 52.6683 44.4214 52.1185 45.0658L51.7123 45.4775L46.7073 49.1933C46.4664 49.3677 46.2969 49.6235 46.2302 49.9134C46.1634 50.2032 46.204 50.5074 46.3444 50.7696C47.4819 52.8279 49.4915 55.8991 51.799 58.2066C54.1119 60.5141 57.324 62.6591 59.5231 63.9212C59.9998 64.1921 60.574 64.1054 60.964 63.7533L61.1698 63.5096L64.4252 58.5533C65.0228 57.7572 65.9054 57.2233 66.888 57.0638C67.8706 56.9042 68.8768 57.1313 69.6956 57.6975L72.6369 59.7504C75.5619 61.8358 78.3731 64.0783 80.5994 66.9221C81.0134 67.4555 81.2765 68.0902 81.3613 68.7601C81.4461 69.4299 81.3495 70.1103 81.0815 70.73C78.9365 75.735 73.5035 79.9979 67.8594 79.7921L66.9981 79.7379L65.9635 79.6404C65.7683 79.6173 65.5733 79.592 65.3785 79.5646L64.0894 79.3479C59.0844 78.4054 51.0623 75.5671 42.7477 67.2579C34.4385 58.9433 31.6002 50.9212 30.6577 45.9162L30.441 44.6271L30.3056 43.5004L30.2352 42.5525C30.2266 42.4171 30.2194 42.2817 30.2135 42.1462C30.0077 36.4912 34.2923 31.0583 39.3027 28.9133Z" fill="white"/>
</svg>
