<svg width="24" height="25" viewBox="0 0 24 25" fill="none" xmlns="http://www.w3.org/2000/svg">
<path d="M12 23.4375C9.9233 23.4375 7.89323 22.796 6.16652 21.5942C4.4398 20.3924 3.09399 18.6842 2.29927 16.6856C1.50455 14.687 1.29661 12.4879 1.70176 10.3662C2.1069 8.24454 3.10693 6.29566 4.57538 4.76602C6.04383 3.23639 7.91476 2.19469 9.95156 1.77267C11.9884 1.35064 14.0996 1.56724 16.0182 2.39507C17.9368 3.22291 19.5767 4.62479 20.7304 6.42346C21.8842 8.22212 22.5 10.3368 22.5 12.5C22.5 15.4008 21.3938 18.1828 19.4246 20.234C17.4555 22.2852 14.7848 23.4375 12 23.4375ZM12 3.12501C10.22 3.12501 8.47992 3.67484 6.99987 4.70498C5.51983 5.73512 4.36628 7.19929 3.68509 8.91235C3.0039 10.6254 2.82567 12.5104 3.17294 14.329C3.5202 16.1475 4.37737 17.818 5.63604 19.1291C6.89472 20.4402 8.49836 21.3331 10.2442 21.6949C11.99 22.0566 13.7996 21.8709 15.4442 21.1614C17.0887 20.4518 18.4943 19.2502 19.4832 17.7085C20.4722 16.1668 21 14.3542 21 12.5C21 10.0136 20.0518 7.62903 18.364 5.87088C16.6761 4.11273 14.387 3.12501 12 3.12501Z" fill="#FEB206"/>
<path d="M15.4425 17.1875L11.25 12.8203V5.46875H12.75V12.1719L16.5 16.0859L15.4425 17.1875Z" fill="#FEB206"/>
</svg>
