<svg width="29" height="30" viewBox="0 0 29 30" fill="none" xmlns="http://www.w3.org/2000/svg">
<path d="M21.75 11.25C21.75 10.1009 21.5313 8.96312 21.1062 7.90152C20.6811 6.83992 20.0581 5.87533 19.2727 5.06282C18.4872 4.2503 17.5548 3.60578 16.5286 3.16605C15.5024 2.72633 14.4025 2.5 13.2917 2.5C12.1809 2.5 11.0811 2.72633 10.0548 3.16605C9.02863 3.60578 8.09619 4.2503 7.31076 5.06282C6.52533 5.87533 5.9023 6.83992 5.47723 7.90152C5.05216 8.96312 4.83337 10.1009 4.83337 11.25C4.83337 12.9838 5.32758 14.5963 6.16858 15.9563H6.15892L13.2917 27.5L20.4245 15.9563H20.416C21.2871 14.552 21.7501 12.9185 21.75 11.25ZM13.2917 15C12.3303 15 11.4083 14.6049 10.7284 13.9017C10.0486 13.1984 9.66671 12.2446 9.66671 11.25C9.66671 10.2554 10.0486 9.30161 10.7284 8.59835C11.4083 7.89509 12.3303 7.5 13.2917 7.5C14.2531 7.5 15.1751 7.89509 15.855 8.59835C16.5348 9.30161 16.9167 10.2554 16.9167 11.25C16.9167 12.2446 16.5348 13.1984 15.855 13.9017C15.1751 14.6049 14.2531 15 13.2917 15Z" fill="#FEB206"/>
</svg>
