<svg width="24" height="25" viewBox="0 0 24 25" fill="none" xmlns="http://www.w3.org/2000/svg">
<path d="M12.04 2.08334C6.58005 2.08334 2.13005 6.71876 2.13005 12.4063C2.13005 14.2292 2.59005 16 3.45005 17.5625L2.05005 22.9167L7.30005 21.4792C8.75005 22.3021 10.38 22.7396 12.04 22.7396C17.5001 22.7396 21.9501 18.1042 21.9501 12.4167C21.9501 9.65626 20.9201 7.06251 19.0501 5.11459C18.1333 4.14993 17.0412 3.38508 15.8377 2.86465C14.6341 2.34421 13.3432 2.07862 12.04 2.08334ZM12.05 3.82293C14.2501 3.82293 16.3101 4.71876 17.8701 6.34376C18.6357 7.14101 19.2426 8.08784 19.6562 9.12997C20.0698 10.1721 20.2818 11.289 20.2801 12.4167C20.2801 17.1458 16.5801 20.9896 12.04 20.9896C10.5601 20.9896 9.11005 20.5833 7.85005 19.7917L7.55005 19.6146L4.43005 20.4688L5.26005 17.3021L5.06005 16.9688C4.23399 15.6028 3.79706 14.0207 3.80005 12.4063C3.81005 7.67709 7.50005 3.82293 12.05 3.82293ZM8.53005 7.63543C8.37005 7.63543 8.10005 7.69793 7.87005 7.95834C7.65005 8.21876 7.00005 8.85418 7.00005 10.1146C7.00005 11.3854 7.89005 12.6042 8.00005 12.7813C8.14005 12.9583 9.76005 15.5625 12.25 16.6667C12.84 16.9479 13.3 17.1042 13.66 17.2188C14.25 17.4167 14.7901 17.3854 15.2201 17.3229C15.7001 17.25 16.68 16.6979 16.89 16.0938C17.1 15.4896 17.1001 14.9792 17.0401 14.8646C16.9701 14.7604 16.8101 14.6979 16.5601 14.5833C16.3101 14.4375 15.09 13.8125 14.8701 13.7292C14.64 13.6458 14.5001 13.6042 14.3101 13.8542C14.1501 14.1146 13.67 14.6979 13.53 14.8646C13.38 15.0417 13.2401 15.0625 13 14.9375C12.7401 14.8021 11.9401 14.5313 11 13.6563C10.26 12.9688 9.77005 12.125 9.62005 11.8646C9.50005 11.6146 9.61005 11.4583 9.73005 11.3438C9.84005 11.2292 10.0001 11.0417 10.1 10.8854C10.2301 10.7396 10.2701 10.625 10.35 10.4583C10.43 10.2813 10.39 10.1354 10.33 10.0104C10.27 9.89584 9.77005 8.60418 9.56005 8.09376C9.36005 7.59376 9.16005 7.65626 9.00005 7.64584C8.86005 7.64584 8.70005 7.63543 8.53005 7.63543Z" fill="#FEB206"/>
</svg>
